<svg width="1840" height="230" viewBox="0 0 1840 230" fill="none" xmlns="http://www.w3.org/2000/svg">
<path d="M0 222.82V7.41935H112.265V40.4474H37.7402V77.7835H105.099V110.812H37.7402V222.82H0Z" fill="black"/>
<path d="M83.236 222.82L176.87 0H177.348L271.221 222.82H231.808L213.416 178.064H139.607L121.215 222.82H83.236ZM152.745 146.472H200.278L189.052 119.428C186.663 113.684 184.434 108.099 182.364 102.674C180.294 97.0898 178.303 90.6278 176.392 83.2882C174.481 90.6278 172.491 97.0101 170.421 102.435C168.51 107.86 166.36 113.524 163.971 119.428L152.745 146.472Z" fill="black"/>
<path d="M335.146 227.128C322.247 227.128 310.065 224.655 298.6 219.709C287.294 214.762 278.297 208.779 271.609 201.759L282.357 157.721C287.612 167.294 295.176 175.432 305.049 182.133C314.922 188.675 325.432 191.946 336.579 191.946C345.974 191.946 353.459 189.313 359.032 184.048C364.606 178.623 367.392 172.001 367.392 164.183C367.392 157.96 365.959 152.855 363.093 148.866C360.227 144.877 356.882 141.686 353.061 139.292C349.239 136.74 345.974 134.825 343.267 133.548L317.709 120.624C311.18 117.274 304.651 113.285 298.122 108.658C291.593 103.871 286.1 97.8078 281.641 90.4683C277.341 82.9691 275.192 73.7149 275.192 62.7055C275.192 50.8984 277.899 40.5272 283.313 31.5921C288.727 22.6569 296.291 15.7163 306.005 10.77C315.878 5.66424 327.264 3.11134 340.162 3.11134C352.583 3.11134 363.65 5.18557 373.364 9.33403C383.078 13.3229 390.881 17.6309 396.772 22.2581L386.501 65.3382C380.769 57.5199 373.603 50.9781 365.004 45.7128C356.405 40.4474 347.567 37.8148 338.49 37.8148C330.21 37.8148 323.76 40.0486 319.142 44.5161C314.683 48.8241 312.454 54.249 312.454 60.7908C312.454 65.0988 313.41 68.8484 315.32 72.0395C317.391 75.2307 320.018 78.0229 323.203 80.4162C326.547 82.65 330.13 84.7242 333.952 86.6389L359.988 99.5629C363.969 101.478 368.427 104.031 373.364 107.222C378.46 110.413 383.396 114.481 388.173 119.428C392.951 124.214 396.852 130.118 399.878 137.138C403.062 143.999 404.655 152.216 404.655 161.79C404.655 174.235 401.709 185.404 395.817 195.297C390.084 205.029 382.043 212.768 371.692 218.512C361.5 224.256 349.318 227.128 335.146 227.128Z" fill="black"/>
<path d="M422.696 222.82V7.41935H460.437V76.8262H526.363V7.41935H564.103V222.82H526.363V111.769H460.437V222.82H422.696Z" fill="black"/>
<path d="M598.297 222.82V7.41935H638.426V222.82H598.297Z" fill="black"/>
<path d="M774.227 227.128C758.621 227.128 743.971 224.256 730.276 218.512C716.581 212.608 704.479 204.551 693.969 194.339C683.619 184.128 675.497 172.241 669.605 158.678C663.873 145.116 661.006 130.597 661.006 115.12C661.006 99.6427 663.873 85.1231 669.605 71.5609C675.497 57.9986 683.619 46.1117 693.969 35.9001C704.479 25.6885 716.581 17.7107 730.276 11.9667C743.971 6.06313 758.621 3.11134 774.227 3.11134C789.992 3.11134 804.722 6.06313 818.416 11.9667C832.111 17.7107 844.134 25.6885 854.485 35.9001C864.835 46.1117 872.877 57.9986 878.61 71.5609C884.502 85.1231 887.448 99.6427 887.448 115.12C887.448 130.597 884.502 145.116 878.61 158.678C872.877 172.241 864.835 184.128 854.485 194.339C844.134 204.551 832.111 212.608 818.416 218.512C804.722 224.256 789.992 227.128 774.227 227.128ZM774.227 189.553C787.762 189.553 800.024 186.202 811.012 179.501C821.999 172.799 830.678 163.784 837.048 152.456C843.577 141.127 846.841 128.682 846.841 115.12C846.841 101.238 843.577 88.7131 837.048 77.5442C830.678 66.3753 821.999 57.4402 811.012 50.7388C800.024 44.0374 787.762 40.6868 774.227 40.6868C760.532 40.6868 748.191 44.0374 737.203 50.7388C726.216 57.4402 717.537 66.4551 711.167 77.7835C704.798 88.9525 701.613 101.398 701.613 115.12C701.613 128.841 704.798 141.367 711.167 152.695C717.537 163.864 726.216 172.799 737.203 179.501C748.191 186.202 760.532 189.553 774.227 189.553Z" fill="black"/>
<path d="M1079.33 230L944.849 92.8616V222.82H908.542V0.239317L1042.78 137.138V7.41935H1079.33V230Z" fill="black"/>
<path d="M1218.83 227.128C1205.93 227.128 1193.75 224.655 1182.29 219.709C1170.98 214.762 1161.98 208.779 1155.29 201.759L1166.04 157.721C1171.3 167.294 1178.86 175.432 1188.73 182.133C1198.61 188.675 1209.12 191.946 1220.26 191.946C1229.66 191.946 1237.14 189.313 1242.72 184.048C1248.29 178.623 1251.08 172.001 1251.08 164.183C1251.08 157.96 1249.64 152.855 1246.78 148.866C1243.91 144.877 1240.57 141.686 1236.75 139.292C1232.92 136.74 1229.66 134.825 1226.95 133.548L1201.39 120.624C1194.87 117.274 1188.34 113.285 1181.81 108.658C1175.28 103.871 1169.79 97.8078 1165.33 90.4683C1161.03 82.9691 1158.88 73.7149 1158.88 62.7055C1158.88 50.8984 1161.58 40.5272 1167 31.5921C1172.41 22.6569 1179.98 15.7163 1189.69 10.77C1199.56 5.66424 1210.95 3.11134 1223.85 3.11134C1236.27 3.11134 1247.34 5.18557 1257.05 9.33403C1266.76 13.3229 1274.57 17.6309 1280.46 22.2581L1270.19 65.3382C1264.45 57.5199 1257.29 50.9781 1248.69 45.7128C1240.09 40.4474 1231.25 37.8148 1222.18 37.8148C1213.9 37.8148 1207.45 40.0486 1202.83 44.5161C1198.37 48.8241 1196.14 54.249 1196.14 60.7908C1196.14 65.0988 1197.1 68.8484 1199.01 72.0395C1201.08 75.2307 1203.7 78.0229 1206.89 80.4162C1210.23 82.65 1213.82 84.7242 1217.64 86.6389L1243.67 99.5629C1247.65 101.478 1252.11 104.031 1257.05 107.222C1262.15 110.413 1267.08 114.481 1271.86 119.428C1276.64 124.214 1280.54 130.118 1283.56 137.138C1286.75 143.999 1288.34 152.216 1288.34 161.79C1288.34 174.235 1285.39 185.404 1279.5 195.297C1273.77 205.029 1265.73 212.768 1255.38 218.512C1245.19 224.256 1233 227.128 1218.83 227.128Z" fill="black"/>
<path d="M1285 42.6015V7.41935H1432.37V42.6015H1378.63V222.82H1338.74V42.6015H1285Z" fill="black"/>
<path d="M1490.31 222.82V120.385L1427.72 7.41935H1471.67L1499.62 59.3548C1501.53 63.0246 1503.44 66.6944 1505.35 70.3642C1507.27 74.034 1509.1 78.342 1510.85 83.2882C1512.92 78.342 1514.83 74.034 1516.58 70.3642C1518.49 66.6944 1520.48 63.0246 1522.55 59.3548L1550.74 7.41935H1591.82L1529.24 120.385V222.82H1490.31Z" fill="black"/>
<path d="M1601.5 222.82V7.41935H1641.39V187.638H1708.51V222.82H1601.5Z" fill="black"/>
<path d="M1727.73 222.82V7.41935H1840V41.4048H1765.47V77.7835H1823.28V110.812H1765.47V187.638H1840V222.82H1727.73Z" fill="black"/>
</svg>
