<?xml version="1.0" encoding="UTF-8"?>
<svg id="_图层_1" data-name="图层 1" xmlns="http://www.w3.org/2000/svg" viewBox="0 0 1571.18 404">
  <defs>
    <style>
      .cls-1 {
        fill: #0d131a;
      }
    </style>
  </defs>
  <g>
    <g>
      <path class="cls-1" d="M646.36,298.42h16.89c7.44,0,13.08,2.1,16.99,6.26,3.64,3.9,5.44,9.54,5.44,16.89s-1.87,12.85-5.57,16.92c-3.9,4.16-9.54,6.23-16.99,6.23h-16.76v-46.3Zm7.08,6.03v34.23h8.39c5.84,0,10.16-1.41,12.89-4.23,2.66-2.79,4.03-7.08,4.03-12.89s-1.31-10.2-3.97-12.98c-2.72-2.75-6.98-4.13-12.85-4.13h-8.49Z"/>
      <path class="cls-1" d="M718.31,315.87c2.62,3.41,4,8.07,4.03,14h-25.41c.26,3.34,1.11,5.84,2.62,7.51,1.64,1.74,3.74,2.62,6.43,2.62,2.39,0,4.33-.59,5.84-1.71,1.11-.82,2.1-2.26,3.08-4.33h6.85c-.82,3.18-2.36,5.8-4.62,7.84-2.92,2.56-6.62,3.84-11.08,3.84-4.98,0-8.85-1.54-11.74-4.62-3.08-3.25-4.66-7.61-4.66-13.08,0-5.02,1.44-9.21,4.39-12.53,2.89-3.41,6.75-5.12,11.74-5.12,5.54,0,9.71,1.84,12.53,5.57Zm-18.49,2.33c-1.44,1.54-2.39,3.71-2.75,6.49h18.1c-.66-5.84-3.74-8.75-9.18-8.75-2.59,0-4.66,.75-6.16,2.26Z"/>
      <path class="cls-1" d="M754.31,320.85h-6.69c-.52-1.8-1.31-3.08-2.39-3.77-1.15-.75-2.92-1.15-5.31-1.15-2.16,0-3.71,.3-4.69,.89-1.18,.66-1.8,1.67-1.8,2.98,0,1.15,.92,2.13,2.72,2.98,1.11,.49,3.38,1.15,6.75,2.03,3.74,.89,6.59,1.97,8.49,3.18,2.69,1.67,4.03,4,4.03,6.98,0,7.12-4.98,10.66-14.92,10.66-9.18,0-14.13-3.93-14.92-11.74h6.75c.39,2.23,1.18,3.84,2.39,4.79,1.21,.85,3.05,1.31,5.57,1.31,5.34,0,8.03-1.54,8.03-4.56,0-1.64-.98-2.92-2.98-3.84-1.02-.49-3.28-1.15-6.72-1.93-4-.92-6.75-1.87-8.33-2.92-2.59-1.64-3.87-3.9-3.87-6.75,0-3.05,1.25-5.44,3.74-7.12,2.52-1.74,5.8-2.59,9.87-2.59,8.75,0,13.48,3.51,14.26,10.56Z"/>
      <path class="cls-1" d="M768.9,299.05c.89,.82,1.34,1.93,1.34,3.31s-.46,2.43-1.41,3.38c-.95,.89-2.07,1.31-3.38,1.31s-2.43-.43-3.38-1.31c-.89-.92-1.34-2.03-1.34-3.38s.46-2.49,1.34-3.31c.89-.85,2-1.28,3.38-1.28s2.56,.43,3.44,1.28Zm-6.89,12.13h6.89v33.54h-6.89v-33.54Z"/>
      <path class="cls-1" d="M801.72,315.67v-4.49h6.89v31.35c0,10.62-5.21,15.94-15.64,15.94-4.62,0-8.2-.89-10.72-2.66-2.43-1.77-3.93-4.53-4.59-8.23h6.89c.39,2,1.18,3.41,2.46,4.23,1.28,.82,3.28,1.21,5.97,1.21,5.84,0,8.75-3.15,8.75-9.48v-5.18c-2.46,3.74-5.9,5.57-10.23,5.57-4.56,0-8.23-1.54-11.05-4.59-2.79-2.98-4.23-7.02-4.23-12.13s1.44-9.12,4.23-12.2c2.79-3.15,6.46-4.72,11.05-4.72s7.8,1.77,10.23,5.38Zm-15.94,3.25c-1.64,1.9-2.49,4.66-2.49,8.3,0,3.25,.66,5.8,1.97,7.71,1.51,2.26,3.93,3.38,7.25,3.38,2.92,0,5.21-.98,6.89-2.92,1.61-2.07,2.39-4.79,2.39-8.16s-.79-6.23-2.39-8.3c-1.67-2.03-3.93-3.05-6.89-3.05s-5.21,1.02-6.72,3.05Z"/>
      <path class="cls-1" d="M845.27,324.03v20.69h-6.89v-20.1c0-5.71-2.62-8.56-7.87-8.56-2.03,0-3.74,.69-5.12,2.07-1.61,1.61-2.52,3.74-2.79,6.43v20.17h-6.89v-33.54h6.89v4.16c1.25-1.64,2.72-2.89,4.49-3.77,1.57-.85,3.48-1.28,5.64-1.28,8.33,0,12.53,4.56,12.53,13.74Z"/>
      <path class="cls-1" d="M879.17,315.87c2.62,3.41,4,8.07,4.03,14h-25.41c.26,3.34,1.11,5.84,2.62,7.51,1.64,1.74,3.74,2.62,6.43,2.62,2.39,0,4.33-.59,5.84-1.71,1.11-.82,2.1-2.26,3.08-4.33h6.85c-.82,3.18-2.36,5.8-4.62,7.84-2.92,2.56-6.62,3.84-11.08,3.84-4.98,0-8.85-1.54-11.74-4.62-3.08-3.25-4.66-7.61-4.66-13.08,0-5.02,1.44-9.21,4.39-12.53,2.89-3.41,6.75-5.12,11.74-5.12,5.54,0,9.71,1.84,12.53,5.57Zm-18.49,2.33c-1.44,1.54-2.39,3.71-2.75,6.49h18.1c-.66-5.84-3.74-8.75-9.18-8.75-2.59,0-4.66,.75-6.16,2.26Z"/>
      <path class="cls-1" d="M912.49,297.5h6.89v47.22h-6.43v-4.03c-2.36,3.31-5.84,4.95-10.36,4.95-4.92,0-8.79-1.77-11.61-5.28-2.62-3.21-3.9-7.41-3.9-12.56s1.28-9.08,3.84-12.26c2.72-3.51,6.49-5.25,11.35-5.25,4.13,0,7.54,1.97,10.23,5.9v-18.69Zm-16.2,21.81c-1.44,1.93-2.16,4.75-2.16,8.49s.69,6.59,2.03,8.62c1.57,2.43,4.07,3.64,7.48,3.64,2.89,0,5.18-1.21,6.92-3.57,1.41-2.16,2.13-4.92,2.13-8.23v-.59c0-3.61-.85-6.53-2.56-8.75-1.67-2.03-3.74-3.05-6.3-3.05-3.41,0-5.93,1.15-7.54,3.44Z"/>
    </g>
    <path class="cls-1" d="M772.27,266.83h-41.29V62.45h118.45c41.57,0,75.38,33.82,75.38,75.38s-33.81,75.39-75.38,75.39h-77.16v53.61Zm0-94.9h77.16c18.8,0,34.09-15.3,34.09-34.1s-15.3-34.09-34.09-34.09h-77.16v68.19Z"/>
    <g>
      <path class="cls-1" d="M679.7,93c7.33-9.96,7.24-21.22,6.88-25.59h-40.21v43.23c15.36-2.88,26.73-8.68,33.33-17.64Z"/>
      <path class="cls-1" d="M646.36,127.85v138.98h41.29V109.09c-9.75,9.63-23.55,15.94-41.29,18.76Z"/>
    </g>
    <circle class="cls-1" cx="902.23" cy="249.68" r="17.15"/>
  </g>
  <g>
    <path class="cls-1" d="M358.28,78c2.93,23.26-16.63,42.82-39.89,39.89-15.85-2-28.65-14.79-30.65-30.64-2.93-23.26,16.63-42.83,39.89-39.89,15.85,2,28.65,14.8,30.65,30.65Z"/>
    <path class="cls-1" d="M321.46,141.72c-.4-.79-1.19-1.29-2.08-1.36-29.93-2.32-53.61-26.92-54.35-57.27-.02-.88-.48-1.71-1.25-2.15-22.96-13.21-49.81-20.38-78.4-19.24-72.71,2.9-132.99,60.11-139.37,132.6-8,90.69,67.58,166.33,158.25,158.47,71.11-6.17,127.87-64.27,132.59-135.5,1.81-27.28-3.98-53.08-15.39-75.56Zm-123.1,152.07c-53.3,4.24-97.62-40.09-93.39-93.38,3.35-41.94,37.32-75.92,79.26-79.27,53.31-4.25,97.64,40.08,93.4,93.39-3.35,41.94-37.32,75.92-79.27,79.26Z"/>
  </g>
  <path class="cls-1" d="M934.59,404h-298c-29.22,0-53-23.78-53-53V53c0-29.22,23.78-53,53-53h298c29.22,0,53,23.78,53,53V351c0,29.22-23.78,53-53,53ZM636.59,14c-21.5,0-39,17.5-39,39V351c0,21.5,17.5,39,39,39h298c21.5,0,39-17.5,39-39V53c0-21.5-17.5-39-39-39h-298Z"/>
  <path class="cls-1" d="M351,404H53c-29.22,0-53-23.78-53-53V53C0,23.78,23.78,0,53,0H351c29.22,0,53,23.78,53,53V351c0,29.22-23.78,53-53,53ZM53,14C31.49,14,14,31.5,14,53V351c0,21.5,17.49,39,39,39H351c21.5,0,39-17.5,39-39V53c0-21.5-17.49-39-39-39H53Z"/>
  <path class="cls-1" d="M1518.18,404h-298c-29.22,0-53-23.78-53-53V53c0-29.22,23.78-53,53-53h298c29.22,0,53,23.78,53,53V351c0,29.22-23.78,53-53,53ZM1220.18,14c-21.5,0-39,17.5-39,39V351c0,21.5,17.5,39,39,39h298c21.5,0,39-17.5,39-39V53c0-21.5-17.5-39-39-39h-298Z"/>
  <path class="cls-1" d="M1532.08,172.4l-63.59-36.71c-1.5-.86-3.37-.44-4.39,.96-21.34,29.38-55.93,48.54-94.93,48.54s-73.6-19.16-94.94-48.53c-1.02-1.4-2.89-1.83-4.38-.96l-63.59,36.71c-1.7,.98-2.25,3.23-1.15,4.87,35.42,52.95,95.72,87.91,164.06,87.91s128.64-34.96,164.06-87.91c1.09-1.64,.55-3.88-1.16-4.87Z"/>
</svg>