<svg width="50" height="32" viewBox="0 0 50 32" fill="none" xmlns="http://www.w3.org/2000/svg">
<path d="M3.12496 0H46.875C48.6001 0 50 1.2793 50 2.85709V29.1443C50 30.7207 48.6001 32 46.875 32H3.12496C1.39839 32.0002 0 30.7207 0 29.1445V2.85709C0 1.2793 1.39993 0 3.12496 0Z" fill="#26A6D1"/>
<path d="M8.06255 10.853L3.125 21.7797H9.03594L9.76873 20.0375H11.4437L12.1765 21.7797H18.6828V20.45L19.2625 21.7797H22.6281L23.2078 20.4219V21.7797H36.7392L38.3845 20.0827L39.9251 21.7797L46.8751 21.7937L41.9219 16.3469L46.8751 10.853H40.0329L38.4313 12.5186L36.9391 10.853H22.2189L20.9548 13.6733L19.6611 10.853H13.7625V12.1375L13.1064 10.853H8.06255ZM9.20629 12.4046H12.0876L15.3626 19.814V12.4046H18.519L21.0486 17.7171L23.3799 12.4046H26.5205V20.2452H24.6095L24.5939 14.1014L21.8079 20.2452H20.0985L17.2969 14.1014V20.2452H13.3656L12.6203 18.4875H8.5938L7.85005 20.2437H5.74373L9.20629 12.4046ZM28.2688 12.4046H36.0391L38.4157 14.9718L40.8689 12.4046H43.2454L39.6345 16.3453L43.2454 20.2406H40.7611L38.3845 17.6436L35.9188 20.2406H28.2688V12.4046ZM10.6079 13.7312L9.28135 16.8625H11.933L10.6079 13.7312ZM30.1876 14.028V15.4593H34.4267V17.0546H30.1876V18.6172H34.9423L37.1516 16.3157L35.0361 14.0267H30.1876V14.028Z" fill="white"/>
</svg>
