<svg width="40" height="26" viewBox="0 0 40 26" fill="none" xmlns="http://www.w3.org/2000/svg">
<path d="M2.49997 0.199219H37.5C38.8801 0.199219 40 1.22266 40 2.48489V23.5147C40 24.7758 38.8801 25.7992 37.5 25.7992H2.49997C1.11871 25.7993 0 24.7758 0 23.5148V2.48489C0 1.22266 1.11995 0.199219 2.49997 0.199219Z" fill="#26A6D1"/>
<path d="M6.45004 8.88281L2.5 17.6241H7.22875L7.81498 16.2304H9.15497L9.7412 17.6241H14.9462V16.5604L15.41 17.6241H18.1025L18.5663 16.5379V17.6241H29.3913L30.7076 16.2666L31.9401 17.6241L37.5001 17.6354L33.5376 13.2779L37.5001 8.88281H32.0263L30.745 10.2153L29.5513 8.88281H17.7751L16.7639 11.139L15.7289 8.88281H11.01V9.91035L10.4851 8.88281H6.45004ZM7.36503 10.1241H9.67004L12.2901 16.0516V10.1241H14.8152L16.8388 14.3741L18.7039 10.1241H21.2164V16.3966H19.6876L19.6751 11.4815L17.4463 16.3966H16.0788L13.8375 11.4815V16.3966H10.6925L10.0963 14.9904H6.87504L6.28004 16.3953H4.59498L7.36503 10.1241ZM22.615 10.1241H28.8313L30.7325 12.1778L32.6951 10.1241H34.5964L31.7076 13.2766L34.5964 16.3929H32.6089L30.7076 14.3153L28.735 16.3929H22.615V10.1241ZM8.48635 11.1854L7.42508 13.6904H9.54638L8.48635 11.1854ZM24.1501 11.4228V12.5678H27.5413V13.8441H24.1501V15.0941H27.9539L29.7213 13.2529L28.0289 11.4217H24.1501V11.4228Z" fill="white"/>
</svg>
