<svg width="50" height="32" viewBox="0 0 50 32" fill="none" xmlns="http://www.w3.org/2000/svg">
<g clip-path="url(#clip0_3069_7036)">
<g clip-path="url(#clip1_3069_7036)">
<path d="M26.1033 17.3776C27.7709 17.3776 29.1227 16.0258 29.1227 14.3582C29.1227 12.6907 27.7709 11.3389 26.1033 11.3389C24.4358 11.3389 23.084 12.6907 23.084 14.3582C23.084 16.0258 24.4358 17.3776 26.1033 17.3776Z" fill="#EF9122"/>
<path d="M23.084 14.3582C23.084 12.6744 24.4195 11.3389 26.1033 11.3389C27.7872 11.3389 29.1227 12.6744 29.1227 14.3582C29.1227 16.0421 27.7872 17.3776 26.1033 17.3776" fill="#F26E21"/>
<path d="M24.0127 12.2098C25.174 11.0485 27.0901 11.0485 28.2514 12.2098C29.4127 13.3711 29.4127 15.2873 28.2514 16.4485" fill="#F44500"/>
<path d="M8.62581 11.5131H7V17.2035H8.62581C9.49677 17.2035 10.1355 16.9712 10.6581 16.5648C11.2968 16.0422 11.7032 15.2293 11.7032 14.3583C11.7032 12.6744 10.4839 11.5131 8.62581 11.5131ZM9.96129 15.8099C9.6129 16.1002 9.14839 16.2744 8.45161 16.2744H8.10323V12.5002H8.39355C9.09032 12.5002 9.55484 12.6164 9.90323 12.9648C10.3097 13.3131 10.5419 13.8357 10.5419 14.3583C10.6 14.8809 10.3677 15.4615 9.96129 15.8099ZM12.2258 11.5131H13.329V17.2035H12.2258V11.5131ZM16.1161 13.7196C15.4194 13.4873 15.2452 13.3131 15.2452 13.0228C15.2452 12.6744 15.5935 12.3841 16.0581 12.3841C16.4065 12.3841 16.6968 12.5002 16.9871 12.8486L17.5677 12.0938C17.1032 11.6873 16.5226 11.4551 15.8839 11.4551C14.8968 11.4551 14.0839 12.1519 14.0839 13.0809C14.0839 13.8938 14.4323 14.2422 15.4774 14.6486C15.9419 14.8228 16.1161 14.8809 16.2323 14.997C16.4645 15.1131 16.5806 15.3454 16.5806 15.5777C16.5806 16.0422 16.2323 16.3906 15.7097 16.3906C15.1871 16.3906 14.7226 16.1002 14.4903 15.6357L13.7935 16.3325C14.3161 17.0873 14.9548 17.4357 15.7677 17.4357C16.929 17.4357 17.7419 16.6809 17.7419 15.5777C17.7419 14.5906 17.3935 14.1841 16.1161 13.7196Z" fill="white"/>
<path d="M18.0903 14.3582C18.0903 16.0421 19.4258 17.3195 21.1097 17.3195C21.5742 17.3195 21.9807 17.2033 22.5032 16.9711V15.6356C22.0387 16.1001 21.6323 16.2743 21.1678 16.2743C20.0645 16.2743 19.2516 15.4614 19.2516 14.3001C19.2516 13.1969 20.0645 12.3259 21.1097 12.3259C21.6323 12.3259 22.0387 12.5001 22.5032 12.9646V11.6291C22.0387 11.3969 21.6323 11.2808 21.1097 11.2808C19.4839 11.3969 18.0903 12.7324 18.0903 14.3582Z" fill="white"/>
<path d="M31.6192 15.3454L30.1095 11.5132H28.8901L31.2708 17.3777H31.9095L34.4063 11.5132H33.1869L31.6192 15.3454ZM34.8708 17.2035H38.0643V16.2745H36.0321V14.7067H38.0063V13.7196H36.0321V12.5003H38.0643V11.5132H34.8708V17.2035Z" fill="white"/>
<path d="M41.2 14.8228C42.071 14.6486 42.5355 14.068 42.5355 13.197C42.5355 12.1519 41.7806 11.5131 40.5032 11.5131H38.8194V17.2035H39.9226V14.9389H40.0968L41.6645 17.2035H43L41.2 14.8228ZM40.271 14.126H39.9226V12.3841H40.271C40.9677 12.3841 41.3742 12.6744 41.3742 13.2551C41.3742 13.8357 40.9677 14.126 40.271 14.126ZM8.62581 11.5131H7V17.2035H8.62581C9.49677 17.2035 10.1355 16.9712 10.6581 16.5648C11.2968 16.0422 11.7032 15.2293 11.7032 14.3583C11.7032 12.6744 10.4839 11.5131 8.62581 11.5131ZM9.96129 15.8099C9.6129 16.1002 9.14839 16.2744 8.45161 16.2744H8.10323V12.5002H8.39355C9.09032 12.5002 9.55484 12.6164 9.90323 12.9648C10.3097 13.3131 10.5419 13.8357 10.5419 14.3583C10.6 14.8809 10.3677 15.4615 9.96129 15.8099ZM12.2258 11.5131H13.329V17.2035H12.2258V11.5131ZM16.1161 13.7196C15.4194 13.4873 15.2452 13.3131 15.2452 13.0228C15.2452 12.6744 15.5935 12.3841 16.0581 12.3841C16.4065 12.3841 16.6968 12.5002 16.9871 12.8486L17.5677 12.0938C17.1032 11.6873 16.5226 11.4551 15.8839 11.4551C14.8968 11.4551 14.0839 12.1519 14.0839 13.0809C14.0839 13.8938 14.4323 14.2422 15.4774 14.6486C15.9419 14.8228 16.1161 14.8809 16.2323 14.997C16.4645 15.1131 16.5806 15.3454 16.5806 15.5777C16.5806 16.0422 16.2323 16.3906 15.7097 16.3906C15.1871 16.3906 14.7226 16.1002 14.4903 15.6357L13.7935 16.3325C14.3161 17.0873 14.9548 17.4357 15.7677 17.4357C16.929 17.4357 17.7419 16.6809 17.7419 15.5777C17.7419 14.5906 17.3935 14.1841 16.1161 13.7196ZM21.1677 17.3196C21.6323 17.3196 22.0387 17.2035 22.5613 16.9712V15.6357C22.0968 16.1002 21.6903 16.2744 21.2258 16.2744C20.1226 16.2744 19.3097 15.4615 19.3097 14.3002C19.3097 13.7196 19.5419 13.2551 19.8903 12.8486L19.1355 12.0938C18.5548 12.6164 18.1484 13.4293 18.1484 14.3002C18.0903 16.0422 19.4258 17.3196 21.1677 17.3196Z" fill="white"/>
<path d="M41.2 14.8229C42.071 14.6487 42.5355 14.068 42.5355 13.1971C42.5355 12.1519 41.7806 11.5132 40.5032 11.5132H38.8193V17.2035H39.9226V14.939H40.0968L41.6645 17.2035H43L41.2 14.8229ZM40.2709 14.1261H39.9226V12.3842H40.2709C40.9677 12.3842 41.3742 12.6745 41.3742 13.2551C41.3742 13.8358 40.9677 14.1261 40.2709 14.1261Z" fill="white"/>
<path d="M15.187 22.487V19.2935L17.3935 21.558V19.4677H17.858V22.6612L15.6515 20.3967V22.487H15.187ZM20.1806 19.9322H18.9612V20.6289H20.1225V21.0935H18.9612V22.0806H20.1806V22.487H18.4967V19.4677H20.1806V19.9322ZM21.6322 19.9322V22.487H21.1677V19.9322H20.4709V19.5257H22.3289V19.9322H21.6322ZM23.0257 19.5257L23.7806 21.558L24.5935 19.4096L25.3483 21.558L26.1612 19.5257H26.7418L25.4064 22.7193L24.6515 20.5709L23.8386 22.7193L22.5612 19.5257H23.0257ZM26.7999 20.9773C26.7999 20.5709 26.9741 20.1644 27.2644 19.8741C27.5548 19.5838 27.9612 19.4096 28.3677 19.4096C28.7741 19.4096 29.1806 19.5838 29.4709 19.8741C29.7612 20.1644 29.9354 20.5709 29.9354 20.9773C29.9354 21.3838 29.7612 21.7902 29.4709 22.0806C29.1806 22.3709 28.7741 22.5451 28.3677 22.5451C27.9612 22.5451 27.6128 22.4289 27.3225 22.1386C26.9741 21.8483 26.7999 21.4999 26.7999 20.9773ZM27.2644 20.9773C27.2644 21.3257 27.3806 21.558 27.6128 21.7902C27.8451 22.0225 28.0773 22.1386 28.3677 22.1386C28.658 22.1386 28.9483 22.0225 29.1806 21.7902C29.4128 21.558 29.5289 21.3257 29.5289 20.9773C29.5289 20.6289 29.4128 20.3967 29.1806 20.1644C28.9483 19.9322 28.716 19.816 28.3677 19.816C28.0773 19.816 27.787 19.9322 27.5548 20.1644C27.3806 20.3967 27.2644 20.687 27.2644 20.9773ZM31.5612 21.2096L32.4902 22.487H31.9096L31.0386 21.2676H30.9806V22.487H30.516V19.4677H31.0386C31.4451 19.4677 31.7354 19.5257 31.9096 19.6999C32.0838 19.8741 32.1999 20.1064 32.1999 20.3386C32.1999 20.5709 32.1418 20.7451 32.0257 20.8612C31.9096 21.0935 31.7354 21.2096 31.5612 21.2096ZM30.9806 20.8612H31.0967C31.5031 20.8612 31.7354 20.687 31.7354 20.3967C31.7354 20.1064 31.5031 19.9322 31.0967 19.9322H30.9225V20.8612H30.9806ZM33.3612 20.687L34.5225 19.4677H35.1031L33.7677 20.8031L35.1031 22.4289H34.5225L33.4193 21.0935L33.3031 21.2096V22.4289H32.8386V19.4096H33.3031V20.687H33.3612Z" fill="#F26E21"/>
<path d="M37.0772 16.2745H36.0321V15.2293L34.8708 14.068V17.2035H38.0063L37.0772 16.2745ZM32.8966 12.0938L31.6192 15.3454L30.1095 11.5132H28.8901L31.2708 17.3777H31.9095L33.7676 12.9648L32.8966 12.0938Z" fill="white"/>
</g>
</g>
<rect x="0.5" y="0.5" width="49" height="31" rx="3.5" stroke="white" stroke-opacity="0.14"/>
<defs>
<clipPath id="clip0_3069_7036">
<rect width="50" height="32" rx="4" fill="white"/>
</clipPath>
<clipPath id="clip1_3069_7036">
<rect width="36" height="36" fill="white" transform="translate(7 -1)"/>
</clipPath>
</defs>
</svg>
