<svg width="50" height="32" viewBox="0 0 50 32" fill="none" xmlns="http://www.w3.org/2000/svg">
<g clip-path="url(#clip0_1002_14317)">
<path d="M17.875 27.875C24.4334 27.875 29.75 22.5584 29.75 16C29.75 9.44162 24.4334 4.125 17.875 4.125C11.3166 4.125 6 9.44162 6 16C6 22.5584 11.3166 27.875 17.875 27.875Z" fill="#F93232"/>
<path d="M32.125 4.125C29.4579 4.125 27.0045 5.01562 25.0238 6.5H25V6.51662C24.5297 6.8705 24.0975 7.2695 23.6854 7.6875H26.3146C26.6803 8.05919 27.0176 8.457 27.3299 8.875H22.6606C22.3729 9.25448 22.1084 9.65104 21.8686 10.0625H28.1196C28.3428 10.4472 28.553 10.8391 28.7347 11.25H21.2641C21.0935 11.6374 20.944 12.0338 20.8164 12.4375H29.1812C29.3047 12.8246 29.4021 13.2224 29.4876 13.625H20.5065C20.4269 14.0145 20.3604 14.4087 20.3201 14.8125H29.6788C29.7251 15.202 29.75 15.5974 29.75 16H20.25C20.25 16.4026 20.2821 16.7956 20.3213 17.1875H29.6811C29.636 17.5901 29.5707 17.9855 29.4888 18.375H20.5077C20.5896 18.7799 20.6953 19.1742 20.8176 19.5625H29.1824C29.0548 19.9662 28.9053 20.3626 28.7347 20.75H21.2641C21.4434 21.1585 21.6453 21.5551 21.8686 21.9375H28.1196C27.8794 22.3493 27.6141 22.7458 27.3251 23.125H22.6606C22.9765 23.543 23.3173 23.9408 23.6843 24.3125H26.3146C25.9058 24.7346 25.4664 25.126 25 25.4834C27.0509 27.0358 29.5528 27.8756 32.125 27.875C38.6836 27.875 44 22.5574 44 16C44 9.44263 38.6836 4.125 32.125 4.125Z" fill="#FED049"/>
</g>
<defs>
<clipPath id="clip0_1002_14317">
<rect width="50" height="32" rx="4" fill="white"/>
</clipPath>
</defs>
</svg>
