<svg width="50" height="32" viewBox="0 0 50 32" fill="none" xmlns="http://www.w3.org/2000/svg">
<rect x="0.5" y="0.5" width="49" height="31" rx="3.5" stroke="white" stroke-opacity="0.1"/>
<path d="M20.125 24.125C24.6123 24.125 28.25 20.4873 28.25 16C28.25 11.5127 24.6123 7.875 20.125 7.875C15.6377 7.875 12 11.5127 12 16C12 20.4873 15.6377 24.125 20.125 24.125Z" fill="#F93232"/>
<path d="M29.875 7.875C28.0501 7.875 26.3715 8.48438 25.0163 9.5H25V9.51137C24.6783 9.7535 24.3825 10.0265 24.1006 10.3125H25.8994C26.1497 10.5668 26.3804 10.839 26.5941 11.125H23.3994C23.2025 11.3846 23.0215 11.656 22.8574 11.9375H27.1344C27.2872 12.2007 27.431 12.4689 27.5553 12.75H22.4439C22.3271 13.0151 22.2249 13.2863 22.1376 13.5625H27.8608C27.9453 13.8274 28.0119 14.0996 28.0704 14.375H21.9255C21.8711 14.6415 21.8256 14.9113 21.7979 15.1875H28.2013C28.2329 15.454 28.25 15.7246 28.25 16H21.75C21.75 16.2754 21.7719 16.5444 21.7988 16.8125H28.2029C28.172 17.0879 28.1273 17.3585 28.0713 17.625H21.9263C21.9824 17.9021 22.0547 18.1718 22.1384 18.4375H27.8616C27.7743 18.7137 27.6721 18.9849 27.5553 19.25H22.4439C22.5666 19.5295 22.7047 19.8009 22.8574 20.0625H27.1344C26.9701 20.3442 26.7886 20.6156 26.5909 20.875H23.3994C23.6155 21.161 23.8487 21.4332 24.0998 21.6875H25.8994C25.6198 21.9763 25.3191 22.2441 25 22.4886C26.4032 23.5508 28.1151 24.1254 29.875 24.125C34.3624 24.125 38 20.4866 38 16C38 11.5134 34.3624 7.875 29.875 7.875Z" fill="#FED049"/>
</svg>
