<svg width="50" height="32" viewBox="0 0 50 32" fill="none" xmlns="http://www.w3.org/2000/svg">
<rect x="0.5" y="0.5" width="49" height="31" rx="3.5" stroke="white" stroke-opacity="0.14"/>
<path d="M31.5973 11H28.7909C28.6258 11 28.4608 11.1651 28.3782 11.3302L27.2227 18.5937C27.2227 18.7587 27.3052 18.8413 27.4703 18.8413H28.956C29.1211 18.8413 29.2036 18.7587 29.2036 18.5937L29.5338 16.5302C29.5338 16.3651 29.6988 16.2 29.9465 16.2H30.8544C32.7528 16.2 33.8258 15.2921 34.0735 13.4762C34.2385 12.7333 34.0735 12.073 33.7433 11.6603C33.2481 11.2476 32.5052 11 31.5973 11ZM31.9274 13.7238C31.7623 14.7143 31.0195 14.7143 30.2766 14.7143H29.7814L30.1115 12.8159C30.1115 12.7333 30.1941 12.6508 30.3592 12.6508H30.5242C31.0195 12.6508 31.5147 12.6508 31.7623 12.981C31.9274 13.0635 31.9274 13.3111 31.9274 13.7238Z" fill="white"/>
<path d="M11.3751 11H8.56874C8.40366 11 8.23858 11.1651 8.15604 11.3302L7.00049 18.5937C7.00049 18.7587 7.08303 18.8413 7.24811 18.8413H8.56874C8.73382 18.8413 8.8989 18.6762 8.98144 18.5111L9.3116 16.5302C9.3116 16.3651 9.47668 16.2 9.7243 16.2H10.6322C12.5306 16.2 13.6037 15.2921 13.8513 13.4762C14.0164 12.7333 13.8513 12.073 13.5211 11.6603C13.0259 11.2476 12.3656 11 11.3751 11ZM11.7053 13.7238C11.5402 14.7143 10.7973 14.7143 10.0545 14.7143H9.64176L9.97192 12.8159C9.97192 12.7333 10.0545 12.6508 10.2195 12.6508H10.3846C10.8799 12.6508 11.3751 12.6508 11.6227 12.981C11.7053 13.0635 11.7878 13.3111 11.7053 13.7238ZM19.8767 13.6413H18.5561C18.4735 13.6413 18.3084 13.7238 18.3084 13.8064L18.2259 14.219L18.1434 14.054C17.8132 13.6413 17.2354 13.4762 16.5751 13.4762C15.0894 13.4762 13.7687 14.6317 13.5211 16.2C13.356 17.0254 13.6037 17.7683 14.0164 18.2635C14.4291 18.7587 15.0068 18.9238 15.7497 18.9238C16.9878 18.9238 17.6481 18.181 17.6481 18.181L17.5656 18.5937C17.5656 18.7587 17.6481 18.8413 17.8132 18.8413H19.0513C19.2164 18.8413 19.3814 18.6762 19.464 18.5111L20.2068 13.8889C20.1243 13.8064 19.9592 13.6413 19.8767 13.6413ZM17.9783 16.2825C17.8132 17.0254 17.2354 17.6032 16.41 17.6032C15.9973 17.6032 15.6672 17.4381 15.5021 17.273C15.337 17.0254 15.2545 16.6952 15.2545 16.2825C15.337 15.5397 15.9973 14.9619 16.7402 14.9619C17.1529 14.9619 17.4005 15.127 17.6481 15.2921C17.8957 15.5397 17.9783 15.9524 17.9783 16.2825Z" fill="white"/>
<path d="M40.0166 13.6412H38.696C38.6135 13.6412 38.4484 13.7237 38.4484 13.8062L38.3658 14.2189L38.2833 14.0539C37.9531 13.6412 37.3754 13.4761 36.7151 13.4761C35.2293 13.4761 33.9087 14.6316 33.6611 16.1999C33.496 17.0253 33.7436 17.7681 34.1563 18.2634C34.569 18.7586 35.1468 18.9237 35.8897 18.9237C37.1278 18.9237 37.7881 18.1808 37.7881 18.1808L37.7055 18.5935C37.7055 18.7586 37.7881 18.8412 37.9531 18.8412H39.1912C39.3563 18.8412 39.5214 18.6761 39.6039 18.511L40.3468 13.8888C40.2643 13.8062 40.1817 13.6412 40.0166 13.6412ZM38.1182 16.2824C37.9531 17.0253 37.3754 17.6031 36.55 17.6031C36.1373 17.6031 35.8071 17.438 35.642 17.2729C35.477 17.0253 35.3944 16.6951 35.3944 16.2824C35.477 15.5396 36.1373 14.9618 36.8801 14.9618C37.2928 14.9618 37.5404 15.1269 37.7881 15.2919C38.1182 15.5396 38.2008 15.9523 38.1182 16.2824Z" fill="white"/>
<path d="M27.0577 13.6411H25.6545C25.4895 13.6411 25.4069 13.7237 25.3244 13.8062L23.5085 16.6125L22.6831 13.9713C22.6006 13.8062 22.518 13.7237 22.2704 13.7237H20.9498C20.7847 13.7237 20.7021 13.8887 20.7021 14.0538L22.1879 18.4284L20.7847 20.4094C20.7021 20.5744 20.7847 20.8221 20.9498 20.8221H22.2704C22.4355 20.8221 22.518 20.7395 22.6006 20.657L27.1402 14.1364C27.3879 13.8887 27.2228 13.6411 27.0577 13.6411Z" fill="white"/>
<path d="M41.5843 11.2478L40.4287 18.6763C40.4287 18.8414 40.5113 18.9239 40.6763 18.9239H41.8319C41.997 18.9239 42.162 18.7589 42.2446 18.5938L43.4001 11.3303C43.4001 11.1652 43.3176 11.0827 43.1525 11.0827H41.8319C41.7493 11.0001 41.6668 11.0827 41.5843 11.2478Z" fill="white"/>
</svg>
