<svg width="50" height="32" viewBox="0 0 50 32" fill="none" xmlns="http://www.w3.org/2000/svg">
<path d="M19.2253 8.33513L12.9421 23.3282H8.84106L5.75125 11.3641C5.56103 10.6263 5.39847 10.3578 4.82809 10.0445C3.89378 9.53934 2.35694 9.06553 1 8.77041L1.09497 8.33522H7.693C8.5345 8.33522 9.29106 8.8965 9.48128 9.86409L11.1151 18.5418L15.1504 8.33522L19.2253 8.33513ZM35.289 18.4309C35.3072 14.4759 29.8165 14.2607 29.856 12.4913C29.8667 11.9512 30.3785 11.3798 31.4996 11.2355C32.0563 11.1614 33.5882 11.1071 35.3246 11.9043L36.0051 8.72634C35.0709 8.38725 33.8701 8.0625 32.3776 8.0625C28.5442 8.0625 25.8456 10.1015 25.8228 13.0189C25.7977 15.1762 27.7482 16.3802 29.2194 17.0987C30.7301 17.8339 31.2352 18.3033 31.2299 18.9626C31.22 19.9689 30.0245 20.4087 28.9095 20.4285C26.959 20.4589 25.8277 19.9014 24.9242 19.4807L24.2221 22.7678C25.127 23.1833 26.8025 23.5441 28.5365 23.5654C32.6108 23.5652 35.2761 21.548 35.289 18.4309ZM45.412 23.3283H49L45.8692 8.33522H42.5569C41.8127 8.33522 41.1852 8.76928 40.9056 9.43425L35.0892 23.3283H39.1603L39.9684 21.0892H44.9448L45.412 23.3283ZM41.0841 18.0161L43.1266 12.3864L44.3015 18.0161H41.0841ZM24.768 8.33513L21.5589 23.3282H17.6796L20.8894 8.33513H24.768Z" fill="#1A2ADF"/>
</svg>
