<svg width="50" height="32" viewBox="0 0 50 32" fill="none" xmlns="http://www.w3.org/2000/svg">
<rect x="0.5" y="0.5" width="49" height="31" rx="3.5" stroke="white" stroke-opacity="0.1"/>
<path d="M21.3908 11.1391L17.4638 20.5098H14.9007L12.9695 13.0322C12.8506 12.5711 12.749 12.4033 12.3926 12.2075C11.8086 11.8918 10.8481 11.5956 10 11.4112L10.0594 11.1392H14.1831C14.7091 11.1392 15.1819 11.49 15.3008 12.0947L16.3219 17.5183L18.844 11.1392L21.3908 11.1391ZM31.4306 17.449C31.442 14.9771 28.0103 14.8426 28.035 13.7368C28.0417 13.3992 28.3616 13.042 29.0622 12.9519C29.4102 12.9056 30.3677 12.8716 31.4529 13.3699L31.8782 11.3837C31.2943 11.1717 30.5438 10.9688 29.611 10.9688C27.2151 10.9688 25.5285 12.2431 25.5143 14.0665C25.4986 15.4148 26.7176 16.1673 27.6371 16.6164C28.5813 17.0759 28.897 17.3692 28.8937 17.7813C28.8875 18.4103 28.1403 18.6851 27.4434 18.6975C26.2244 18.7165 25.5173 18.3681 24.9527 18.1051L24.5138 20.1596C25.0794 20.4193 26.1266 20.6447 27.2103 20.658C29.7568 20.6579 31.4226 19.3972 31.4306 17.449ZM37.7575 20.5099H40L38.0433 11.1392H35.9731C35.5079 11.1392 35.1157 11.4105 34.941 11.8261L31.3057 20.5099H33.8502L34.3553 19.1104H37.4655L37.7575 20.5099ZM35.0526 17.1898L36.3291 13.6712L37.0635 17.1898H35.0526ZM24.855 11.1391L22.8493 20.5098H20.4248L22.4309 11.1391H24.855Z" fill="#1A2ADF"/>
</svg>
