<svg width="16" height="16" viewBox="0 0 16 16" fill="none" xmlns="http://www.w3.org/2000/svg">
<rect width="16" height="16" rx="4" fill="black"/>
<path d="M8 13C7.30672 13 6.65896 12.8718 6.05672 12.6154C5.45448 12.3519 4.92227 11.9922 4.46008 11.5363C4.0049 11.0805 3.64776 10.5499 3.38866 9.94444C3.12955 9.33903 3 8.69088 3 8C3 7.30912 3.12955 6.66097 3.38866 6.05556C3.64776 5.45014 4.0049 4.91952 4.46008 4.46367C4.92227 4.00783 5.45448 3.65171 6.05672 3.3953C6.65896 3.13177 7.30672 3 8 3C8.69328 3 9.34104 3.13177 9.94328 3.3953C10.5455 3.65171 11.0742 4.00783 11.5294 4.46367C11.9916 4.91952 12.3522 5.45014 12.6113 6.05556C12.8704 6.66097 13 7.30912 13 8C13 8.69088 12.8704 9.33903 12.6113 9.94444C12.3522 10.5499 11.9916 11.0805 11.5294 11.5363C11.0742 11.9922 10.5455 12.3519 9.94328 12.6154C9.34104 12.8718 8.69328 13 8 13ZM8 11.141C8.56723 11.141 9.07843 11.0021 9.53361 10.7244C9.98879 10.4395 10.3494 10.0584 10.6155 9.5812C10.8887 9.10399 11.0252 8.57692 11.0252 8C11.0252 7.41595 10.8887 6.88889 10.6155 6.4188C10.3494 5.9416 9.98879 5.5641 9.53361 5.28632C9.07843 5.00142 8.56723 4.85897 8 4.85897C7.43277 4.85897 6.91807 5.00142 6.45588 5.28632C6.0007 5.5641 5.64006 5.9416 5.37395 6.4188C5.10784 6.88889 4.97479 7.41595 4.97479 8C4.97479 8.57692 5.10784 9.10399 5.37395 9.5812C5.64006 10.0584 6.0007 10.4395 6.45588 10.7244C6.91807 11.0021 7.43277 11.141 8 11.141Z" fill="white"/>
</svg>
