<svg width="171" height="33" viewBox="0 0 171 33" fill="none" xmlns="http://www.w3.org/2000/svg">
<path d="M16.6667 32.6C14.4667 32.6 12.4111 32.2 10.5 31.4C8.58889 30.5778 6.9 29.4556 5.43333 28.0333C3.98889 26.6111 2.85556 24.9556 2.03333 23.0667C1.21111 21.1778 0.8 19.1556 0.8 17C0.8 14.8444 1.21111 12.8222 2.03333 10.9333C2.85556 9.04444 3.98889 7.38889 5.43333 5.96667C6.9 4.54444 8.58889 3.43333 10.5 2.63333C12.4111 1.81111 14.4667 1.4 16.6667 1.4C18.8667 1.4 20.9222 1.81111 22.8333 2.63333C24.7444 3.43333 26.4222 4.54444 27.8667 5.96667C29.3333 7.38889 30.4778 9.04444 31.3 10.9333C32.1222 12.8222 32.5333 14.8444 32.5333 17C32.5333 19.1556 32.1222 21.1778 31.3 23.0667C30.4778 24.9556 29.3333 26.6111 27.8667 28.0333C26.4222 29.4556 24.7444 30.5778 22.8333 31.4C20.9222 32.2 18.8667 32.6 16.6667 32.6ZM16.6667 26.8C18.4667 26.8 20.0889 26.3667 21.5333 25.5C22.9778 24.6111 24.1222 23.4222 24.9667 21.9333C25.8333 20.4444 26.2667 18.8 26.2667 17C26.2667 15.1778 25.8333 13.5333 24.9667 12.0667C24.1222 10.5778 22.9778 9.4 21.5333 8.53333C20.0889 7.64444 18.4667 7.2 16.6667 7.2C14.8667 7.2 13.2333 7.64444 11.7667 8.53333C10.3222 9.4 9.17778 10.5778 8.33333 12.0667C7.48889 13.5333 7.06667 15.1778 7.06667 17C7.06667 18.8 7.48889 20.4444 8.33333 21.9333C9.17778 23.4222 10.3222 24.6111 11.7667 25.5C13.2333 26.3667 14.8667 26.8 16.6667 26.8ZM52.0104 32.6C49.8104 32.6 47.7549 32.2 45.8438 31.4C43.9326 30.5778 42.2438 29.4556 40.7771 28.0333C39.3326 26.6111 38.1993 24.9556 37.3771 23.0667C36.5549 21.1778 36.1438 19.1556 36.1438 17C36.1438 14.8444 36.5549 12.8222 37.3771 10.9333C38.1993 9.04444 39.3326 7.38889 40.7771 5.96667C42.2438 4.54444 43.9326 3.43333 45.8438 2.63333C47.7549 1.81111 49.8104 1.4 52.0104 1.4C53.9882 1.4 55.8549 1.72222 57.6104 2.36667C59.366 3.01111 60.9326 3.92222 62.3104 5.1L60.6104 12.1C59.7882 10.7222 58.6549 9.56667 57.2104 8.63333C55.766 7.67778 54.0993 7.2 52.2104 7.2C50.4104 7.2 48.7771 7.64444 47.3104 8.53333C45.866 9.4 44.7215 10.5778 43.8771 12.0667C43.0326 13.5333 42.6104 15.1778 42.6104 17C42.6104 18.8 43.0326 20.4444 43.8771 21.9333C44.7215 23.4222 45.866 24.6111 47.3104 25.5C48.7771 26.3667 50.4104 26.8 52.2104 26.8C54.0771 26.8 55.7326 26.3333 57.1771 25.4C58.6437 24.4444 59.7882 23.2778 60.6104 21.9L62.3104 28.9C60.9104 30.0556 59.3326 30.9667 57.5771 31.6333C55.8438 32.2778 53.9882 32.6 52.0104 32.6ZM66.5594 32V2H72.3594V11.6H81.026V2H86.826V32H81.026V17H72.3594V32H66.5594ZM90.4313 32L103.665 0.933333H103.731L116.965 32H110.931L108.698 26.6667H98.4979L96.2646 32H90.4313ZM100.498 21.8667H106.698L105.398 18.8C105.042 17.9778 104.709 17.1889 104.398 16.4333C104.109 15.6556 103.831 14.7556 103.565 13.7333C103.32 14.7333 103.053 15.6222 102.765 16.4C102.476 17.1778 102.153 17.9778 101.798 18.8L100.498 21.8667ZM137.193 32L126.259 13.5L134.559 2H141.426L133.093 13.4L144.226 32H137.193ZM120.559 32V2H126.559V32H120.559ZM144.431 32L157.665 0.933333H157.731L170.965 32H164.931L162.698 26.6667H152.498L150.265 32H144.431ZM154.498 21.8667H160.698L159.398 18.8C159.042 17.9778 158.709 17.1889 158.398 16.4333C158.109 15.6556 157.831 14.7556 157.565 13.7333C157.32 14.7333 157.053 15.6222 156.765 16.4C156.476 17.1778 156.153 17.9778 155.798 18.8L154.498 21.8667Z" fill="white"/>
</svg>
