<svg width="131" height="28" viewBox="0 0 131 28" fill="none" xmlns="http://www.w3.org/2000/svg">
<path d="M13.7222 27.5C11.8889 27.5 10.1759 27.1667 8.58333 26.5C6.99074 25.8148 5.58333 24.8796 4.36111 23.6944C3.15741 22.5093 2.21296 21.1296 1.52778 19.5556C0.842593 17.9815 0.5 16.2963 0.5 14.5C0.5 12.7037 0.842593 11.0185 1.52778 9.44444C2.21296 7.87037 3.15741 6.49074 4.36111 5.30555C5.58333 4.12037 6.99074 3.19444 8.58333 2.52778C10.1759 1.84259 11.8889 1.5 13.7222 1.5C15.5556 1.5 17.2685 1.84259 18.8611 2.52778C20.4537 3.19444 21.8519 4.12037 23.0556 5.30555C24.2778 6.49074 25.2315 7.87037 25.9167 9.44444C26.6019 11.0185 26.9444 12.7037 26.9444 14.5C26.9444 16.2963 26.6019 17.9815 25.9167 19.5556C25.2315 21.1296 24.2778 22.5093 23.0556 23.6944C21.8519 24.8796 20.4537 25.8148 18.8611 26.5C17.2685 27.1667 15.5556 27.5 13.7222 27.5ZM13.7222 22.6667C15.2222 22.6667 16.5741 22.3056 17.7778 21.5833C18.9815 20.8426 19.9352 19.8519 20.6389 18.6111C21.3611 17.3704 21.7222 16 21.7222 14.5C21.7222 12.9815 21.3611 11.6111 20.6389 10.3889C19.9352 9.14815 18.9815 8.16667 17.7778 7.44444C16.5741 6.7037 15.2222 6.33333 13.7222 6.33333C12.2222 6.33333 10.8611 6.7037 9.63889 7.44444C8.43519 8.16667 7.48148 9.14815 6.77778 10.3889C6.07407 11.6111 5.72222 12.9815 5.72222 14.5C5.72222 16 6.07407 17.3704 6.77778 18.6111C7.48148 19.8519 8.43519 20.8426 9.63889 21.5833C10.8611 22.3056 12.2222 22.6667 13.7222 22.6667ZM38.4531 27.5556C36.805 27.5556 35.2957 27.1574 33.9253 26.3611C32.555 25.5648 31.4624 24.4907 30.6476 23.1389C29.8513 21.787 29.4531 20.2963 29.4531 18.6667C29.4531 17.0185 29.8513 15.5278 30.6476 14.1944C31.4624 12.8426 32.555 11.7685 33.9253 10.9722C35.2957 10.1759 36.805 9.77778 38.4531 9.77778C39.6013 9.77778 40.6846 9.97222 41.7031 10.3611C42.7402 10.7315 43.6568 11.287 44.4531 12.0278L43.2031 16.9444C42.7402 16.1852 42.1198 15.5278 41.342 14.9722C40.5828 14.3981 39.6846 14.1111 38.6476 14.1111C37.7772 14.1111 36.9994 14.3148 36.3142 14.7222C35.6291 15.1296 35.092 15.6759 34.7031 16.3611C34.3142 17.0463 34.1198 17.8148 34.1198 18.6667C34.1198 19.5 34.3142 20.2685 34.7031 20.9722C35.092 21.6574 35.6291 22.2037 36.3142 22.6111C36.9994 23.0185 37.7772 23.2222 38.6476 23.2222C39.6846 23.2222 40.5828 22.9444 41.342 22.3889C42.1198 21.8148 42.7402 21.1481 43.2031 20.3889L44.4531 25.3056C43.6568 26.0463 42.7402 26.6111 41.7031 27C40.6846 27.3704 39.6013 27.5556 38.4531 27.5556ZM46.9661 27V0.333333H51.7995V11.5833C52.3921 10.9907 53.068 10.5463 53.8273 10.25C54.605 9.93519 55.4291 9.77778 56.2995 9.77778C57.4847 9.77778 58.5865 10.0648 59.605 10.6389C60.6421 11.1944 61.4754 12.0185 62.105 13.1111C62.7532 14.1852 63.0773 15.4907 63.0773 17.0278V27H58.2439V17.6667C58.2439 16.7407 57.9661 15.9167 57.4106 15.1944C56.855 14.4722 56.0587 14.1111 55.0217 14.1111C54.1884 14.1111 53.4384 14.3981 52.7717 14.9722C52.1236 15.5278 51.7995 16.4074 51.7995 17.6111V27H46.9661ZM73.9193 27.4444C72.3822 27.4444 70.9841 27.0463 69.7248 26.25C68.4656 25.4537 67.4563 24.3981 66.697 23.0833C65.9563 21.75 65.5859 20.2778 65.5859 18.6667C65.5859 17.0556 65.9563 15.5833 66.697 14.25C67.4563 12.9167 68.4656 11.8611 69.7248 11.0833C70.9841 10.287 72.3822 9.88889 73.9193 9.88889C74.9933 9.88889 75.9748 10.0833 76.8637 10.4722C77.7526 10.8426 78.5119 11.3611 79.1415 12.0278V10.3333H83.3082V27H79.1415V25.3056C78.5119 25.9722 77.7526 26.5 76.8637 26.8889C75.9748 27.2593 74.9933 27.4444 73.9193 27.4444ZM74.5026 23.1944C75.3174 23.1944 76.0582 22.9907 76.7248 22.5833C77.3915 22.1759 77.9193 21.6296 78.3082 20.9444C78.7156 20.2593 78.9193 19.5 78.9193 18.6667C78.9193 17.8333 78.7156 17.0741 78.3082 16.3889C77.9193 15.7037 77.3915 15.1574 76.7248 14.75C76.0582 14.3426 75.3174 14.1389 74.5026 14.1389C73.6878 14.1389 72.947 14.3426 72.2804 14.75C71.6137 15.1574 71.0767 15.7037 70.6693 16.3889C70.2804 17.0741 70.0859 17.8333 70.0859 18.6667C70.0859 19.5 70.2804 20.2593 70.6693 20.9444C71.0767 21.6296 71.6137 22.1759 72.2804 22.5833C72.947 22.9907 73.6878 23.1944 74.5026 23.1944ZM98.0495 27L91.4106 17.8333L96.8828 10.3333H102.077L96.6884 17.4167L103.744 27H98.0495ZM86.9661 27V0.333333H91.7995V27H86.9661ZM111.966 27.4444C110.429 27.4444 109.031 27.0463 107.772 26.25C106.512 25.4537 105.503 24.3981 104.744 23.0833C104.003 21.75 103.633 20.2778 103.633 18.6667C103.633 17.0556 104.003 15.5833 104.744 14.25C105.503 12.9167 106.512 11.8611 107.772 11.0833C109.031 10.287 110.429 9.88889 111.966 9.88889C113.04 9.88889 114.022 10.0833 114.911 10.4722C115.799 10.8426 116.559 11.3611 117.188 12.0278V10.3333H121.355V27H117.188V25.3056C116.559 25.9722 115.799 26.5 114.911 26.8889C114.022 27.2593 113.04 27.4444 111.966 27.4444ZM112.549 23.1944C113.364 23.1944 114.105 22.9907 114.772 22.5833C115.438 22.1759 115.966 21.6296 116.355 20.9444C116.762 20.2593 116.966 19.5 116.966 18.6667C116.966 17.8333 116.762 17.0741 116.355 16.3889C115.966 15.7037 115.438 15.1574 114.772 14.75C114.105 14.3426 113.364 14.1389 112.549 14.1389C111.735 14.1389 110.994 14.3426 110.327 14.75C109.661 15.1574 109.124 15.7037 108.716 16.3889C108.327 17.0741 108.133 17.8333 108.133 18.6667C108.133 19.5 108.327 20.2593 108.716 20.9444C109.124 21.6296 109.661 22.1759 110.327 22.5833C110.994 22.9907 111.735 23.1944 112.549 23.1944Z" fill="#685BC7"/>
<path d="M127.346 27.5556C126.495 27.5556 125.782 27.2685 125.207 26.6944C124.633 26.1204 124.346 25.4074 124.346 24.5556C124.346 23.7037 124.633 22.9907 125.207 22.4167C125.782 21.8426 126.495 21.5556 127.346 21.5556C128.217 21.5556 128.93 21.8426 129.485 22.4167C130.059 22.9907 130.346 23.7037 130.346 24.5556C130.346 25.4074 130.059 26.1204 129.485 26.6944C128.93 27.2685 128.217 27.5556 127.346 27.5556Z" fill="#FE572A"/>
</svg>
