<svg width="133" height="53" viewBox="0 0 133 53" fill="none" xmlns="http://www.w3.org/2000/svg">
<g clip-path="url(#clip0_3262_14056)">
<path d="M14.7222 40.5C12.8889 40.5 11.1759 40.1667 9.58333 39.5C7.99074 38.8148 6.58333 37.8796 5.36111 36.6944C4.15741 35.5093 3.21296 34.1296 2.52778 32.5556C1.84259 30.9815 1.5 29.2963 1.5 27.5C1.5 25.7037 1.84259 24.0185 2.52778 22.4444C3.21296 20.8704 4.15741 19.4907 5.36111 18.3056C6.58333 17.1204 7.99074 16.1944 9.58333 15.5278C11.1759 14.8426 12.8889 14.5 14.7222 14.5C16.5556 14.5 18.2685 14.8426 19.8611 15.5278C21.4537 16.1944 22.8519 17.1204 24.0556 18.3056C25.2778 19.4907 26.2315 20.8704 26.9167 22.4444C27.6019 24.0185 27.9444 25.7037 27.9444 27.5C27.9444 29.2963 27.6019 30.9815 26.9167 32.5556C26.2315 34.1296 25.2778 35.5093 24.0556 36.6944C22.8519 37.8796 21.4537 38.8148 19.8611 39.5C18.2685 40.1667 16.5556 40.5 14.7222 40.5ZM14.7222 35.6667C16.2222 35.6667 17.5741 35.3056 18.7778 34.5833C19.9815 33.8426 20.9352 32.8519 21.6389 31.6111C22.3611 30.3704 22.7222 29 22.7222 27.5C22.7222 25.9815 22.3611 24.6111 21.6389 23.3889C20.9352 22.1481 19.9815 21.1667 18.7778 20.4444C17.5741 19.7037 16.2222 19.3333 14.7222 19.3333C13.2222 19.3333 11.8611 19.7037 10.6389 20.4444C9.43519 21.1667 8.48148 22.1481 7.77778 23.3889C7.07407 24.6111 6.72222 25.9815 6.72222 27.5C6.72222 29 7.07407 30.3704 7.77778 31.6111C8.48148 32.8519 9.43519 33.8426 10.6389 34.5833C11.8611 35.3056 13.2222 35.6667 14.7222 35.6667ZM39.4531 40.5556C37.805 40.5556 36.2957 40.1574 34.9253 39.3611C33.555 38.5648 32.4624 37.4907 31.6476 36.1389C30.8513 34.787 30.4531 33.2963 30.4531 31.6667C30.4531 30.0185 30.8513 28.5278 31.6476 27.1944C32.4624 25.8426 33.555 24.7685 34.9253 23.9722C36.2957 23.1759 37.805 22.7778 39.4531 22.7778C40.6013 22.7778 41.6846 22.9722 42.7031 23.3611C43.7402 23.7315 44.6568 24.287 45.4531 25.0278L44.2031 29.9444C43.7402 29.1852 43.1198 28.5278 42.342 27.9722C41.5828 27.3981 40.6846 27.1111 39.6476 27.1111C38.7772 27.1111 37.9994 27.3148 37.3142 27.7222C36.6291 28.1296 36.092 28.6759 35.7031 29.3611C35.3142 30.0463 35.1198 30.8148 35.1198 31.6667C35.1198 32.5 35.3142 33.2685 35.7031 33.9722C36.092 34.6574 36.6291 35.2037 37.3142 35.6111C37.9994 36.0185 38.7772 36.2222 39.6476 36.2222C40.6846 36.2222 41.5828 35.9444 42.342 35.3889C43.1198 34.8148 43.7402 34.1481 44.2031 33.3889L45.4531 38.3056C44.6568 39.0463 43.7402 39.6111 42.7031 40C41.6846 40.3704 40.6013 40.5556 39.4531 40.5556ZM47.9661 40V13.3333H52.7995V24.5833C53.3921 23.9907 54.068 23.5463 54.8273 23.25C55.605 22.9352 56.4291 22.7778 57.2995 22.7778C58.4847 22.7778 59.5865 23.0648 60.605 23.6389C61.6421 24.1944 62.4754 25.0185 63.105 26.1111C63.7532 27.1852 64.0773 28.4907 64.0773 30.0278V40H59.2439V30.6667C59.2439 29.7407 58.9661 28.9167 58.4106 28.1944C57.855 27.4722 57.0587 27.1111 56.0217 27.1111C55.1884 27.1111 54.4384 27.3981 53.7717 27.9722C53.1236 28.5278 52.7995 29.4074 52.7995 30.6111V40H47.9661ZM74.9193 40.4444C73.3822 40.4444 71.9841 40.0463 70.7248 39.25C69.4656 38.4537 68.4563 37.3981 67.697 36.0833C66.9563 34.75 66.5859 33.2778 66.5859 31.6667C66.5859 30.0556 66.9563 28.5833 67.697 27.25C68.4563 25.9167 69.4656 24.8611 70.7248 24.0833C71.9841 23.287 73.3822 22.8889 74.9193 22.8889C75.9933 22.8889 76.9748 23.0833 77.8637 23.4722C78.7526 23.8426 79.5119 24.3611 80.1415 25.0278V23.3333H84.3082V40H80.1415V38.3056C79.5119 38.9722 78.7526 39.5 77.8637 39.8889C76.9748 40.2593 75.9933 40.4444 74.9193 40.4444ZM75.5026 36.1944C76.3174 36.1944 77.0582 35.9907 77.7248 35.5833C78.3915 35.1759 78.9193 34.6296 79.3082 33.9444C79.7156 33.2593 79.9193 32.5 79.9193 31.6667C79.9193 30.8333 79.7156 30.0741 79.3082 29.3889C78.9193 28.7037 78.3915 28.1574 77.7248 27.75C77.0582 27.3426 76.3174 27.1389 75.5026 27.1389C74.6878 27.1389 73.947 27.3426 73.2804 27.75C72.6137 28.1574 72.0767 28.7037 71.6693 29.3889C71.2804 30.0741 71.0859 30.8333 71.0859 31.6667C71.0859 32.5 71.2804 33.2593 71.6693 33.9444C72.0767 34.6296 72.6137 35.1759 73.2804 35.5833C73.947 35.9907 74.6878 36.1944 75.5026 36.1944ZM99.0495 40L92.4106 30.8333L97.8828 23.3333H103.077L97.6884 30.4167L104.744 40H99.0495ZM87.9661 40V13.3333H92.7995V40H87.9661ZM112.966 40.4444C111.429 40.4444 110.031 40.0463 108.772 39.25C107.512 38.4537 106.503 37.3981 105.744 36.0833C105.003 34.75 104.633 33.2778 104.633 31.6667C104.633 30.0556 105.003 28.5833 105.744 27.25C106.503 25.9167 107.512 24.8611 108.772 24.0833C110.031 23.287 111.429 22.8889 112.966 22.8889C114.04 22.8889 115.022 23.0833 115.911 23.4722C116.799 23.8426 117.559 24.3611 118.188 25.0278V23.3333H122.355V40H118.188V38.3056C117.559 38.9722 116.799 39.5 115.911 39.8889C115.022 40.2593 114.04 40.4444 112.966 40.4444ZM113.549 36.1944C114.364 36.1944 115.105 35.9907 115.772 35.5833C116.438 35.1759 116.966 34.6296 117.355 33.9444C117.762 33.2593 117.966 32.5 117.966 31.6667C117.966 30.8333 117.762 30.0741 117.355 29.3889C116.966 28.7037 116.438 28.1574 115.772 27.75C115.105 27.3426 114.364 27.1389 113.549 27.1389C112.735 27.1389 111.994 27.3426 111.327 27.75C110.661 28.1574 110.124 28.7037 109.716 29.3889C109.327 30.0741 109.133 30.8333 109.133 31.6667C109.133 32.5 109.327 33.2593 109.716 33.9444C110.124 34.6296 110.661 35.1759 111.327 35.5833C111.994 35.9907 112.735 36.1944 113.549 36.1944ZM128.346 40.5556C127.495 40.5556 126.782 40.2685 126.207 39.6944C125.633 39.1204 125.346 38.4074 125.346 37.5556C125.346 36.7037 125.633 35.9907 126.207 35.4167C126.782 34.8426 127.495 34.5556 128.346 34.5556C129.217 34.5556 129.93 34.8426 130.485 35.4167C131.059 35.9907 131.346 36.7037 131.346 37.5556C131.346 38.4074 131.059 39.1204 130.485 39.6944C129.93 40.2685 129.217 40.5556 128.346 40.5556Z" fill="black"/>
</g>
<defs>
<clipPath id="clip0_3262_14056">
<rect width="133" height="53" fill="white"/>
</clipPath>
</defs>
</svg>
