<svg width="20" height="20" viewBox="0 0 20 20" fill="none" xmlns="http://www.w3.org/2000/svg">
<path d="M7.50083 9.9575C7.5 5 9.16667 1.66667 12.5 0C12.9167 5 17.5 6.66667 17.5 12.5C17.5 14.4891 16.7098 16.3968 15.3033 17.8033C13.8968 19.2098 11.9891 20 10 20C8.01088 20 6.10322 19.2098 4.6967 17.8033C3.29018 16.3968 2.5 14.4891 2.5 12.5C2.5 9.58333 3.33333 8.33333 5 6.66667C5 9.16667 7.50083 9.9575 7.50083 9.9575Z" fill="url(#paint0_linear_2753_18552)"/>
<path d="M7.50083 9.9575C7.5 5 9.16667 1.66667 12.5 0C12.9167 5 17.5 6.66667 17.5 12.5C17.5 14.4891 16.7098 16.3968 15.3033 17.8033C13.8968 19.2098 11.9891 20 10 20C8.01088 20 6.10322 19.2098 4.6967 17.8033C3.29018 16.3968 2.5 14.4891 2.5 12.5C2.5 9.58333 3.33333 8.33333 5 6.66667C5 9.16667 7.50083 9.9575 7.50083 9.9575Z" fill="#EB423F"/>
<path d="M9.99911 19.7914C6.64411 19.7914 3.80328 17.6114 2.80078 14.5931C3.70745 17.7156 6.58411 19.9997 9.99911 19.9997C13.4141 19.9997 16.2908 17.7156 17.1974 14.5931C16.1949 17.6114 13.3541 19.7914 9.99911 19.7914Z" fill="#010101" fill-opacity="0.0627451"/>
<path d="M13.75 14.5834C13.75 15.5779 13.3549 16.5317 12.6516 17.235C11.9484 17.9383 10.9946 18.3334 10 18.3334C9.00544 18.3334 8.05161 17.9383 7.34835 17.235C6.64509 16.5317 6.25 15.5779 6.25 14.5834C6.25 13.1859 6.66667 12.465 7.5 11.6667C7.5 13.3334 8.75 13.75 8.75 13.75C8.75 11.375 9.58333 9.96502 11.25 9.16669C11.4583 11.5625 13.75 12.3442 13.75 14.5834Z" fill="#FFD33A"/>
<path opacity="0.2" d="M8.75 13.9584C8.75 11.5834 9.58333 10.1734 11.25 9.37502C11.4542 11.7234 13.655 12.5242 13.7417 14.6642C13.7425 14.6367 13.75 14.6109 13.75 14.5834C13.75 12.3434 11.4583 11.5625 11.25 9.16669C9.58333 9.96502 8.75 11.375 8.75 13.75C8.75 13.75 7.5 13.3334 7.5 11.6667C6.66667 12.465 6.25 13.1859 6.25 14.5834C6.25 14.6034 6.25583 14.6217 6.25583 14.6417C6.28667 13.3459 6.6975 12.6434 7.5 11.875C7.5 13.5417 8.75 13.9584 8.75 13.9584Z" fill="white"/>
<defs>
<linearGradient id="paint0_linear_2753_18552" x1="4.08833" y1="7.04917" x2="17.8308" y2="13.4575" gradientUnits="userSpaceOnUse">
<stop stop-color="white" stop-opacity="0.2"/>
<stop offset="1" stop-color="white" stop-opacity="0"/>
</linearGradient>
</defs>
</svg>
